# xmcd
#
# Track frame offsets:
# 150
# 39674
# 54990
# 70508
# 88164
# 104801
# 118525
# 133926
# 148182
# 158171
# 173954
# 189225
# 203413
# 214862
# 226289
# 247224
# 264384
# 278772
#
# Disc length: 4357 seconds
#
#
# Revision: 1
# Processed by: cddbd v1.5.1PL0 Copyright (c) Steve Scherf et al.
# Submitted via: FreeRIP 2.80 
#
DISCID=0c110312
DTITLE=Marco Brasil - Lembranças
DYEAR=2003
DGENRE=Country
TTITLE0=Poema Burrinho Pampa
TTITLE1=Meu Velho Pai
TTITLE2=Amargurado
TTITLE3=Filho Pródigo
TTITLE4=Pé de Ipê
TTITLE5=Vou Toma um Pingão
TTITLE6=Ara Pó
TTITLE7=Poema Jesus Pintou com as Mãos
TTITLE8=Abandono
TTITLE9=Quando a Saudade Judia
TTITLE10=A Dama da Boate Azul
TTITLE11=Colcha de Retalhos
TTITLE12=Lágrimas que Choram
TTITLE13=Você vai gostar/Casinha Branca
TTITLE14=Menina da Aldeia
TTITLE15=Rancho Estrela Dourada
TTITLE16=Agito Meu Povo
TTITLE17=Poema O Sentido da Vida
EXTD=YEAR: 2003
EXTT0=
EXTT1=
EXTT2=
EXTT3=
EXTT4=
EXTT5=
EXTT6=
EXTT7=
EXTT8=
EXTT9=
EXTT10=
EXTT11=
EXTT12=
EXTT13=
EXTT14=
EXTT15=
EXTT16=
EXTT17=
PLAYORDER=
